<?xml version="1.0" standalone="no"?>
<!DOCTYPE svg PUBLIC "-//W3C//DTD SVG 1.1//EN" "http://www.w3.org/Graphics/SVG/1.1/DTD/svg11.dtd">
<svg xmlns="http://www.w3.org/2000/svg" xmlns:xlink="http://www.w3.org/1999/xlink" xmlns:xodm="http://www.corel.com/coreldraw/odm/2003" xml:space="preserve" width="12076.7001953125" height="14140.08984375" version="1.1" style="shape-rendering:geometricPrecision; text-rendering:geometricPrecision; image-rendering:optimizeQuality; fill-rule:evenodd; clip-rule:evenodd" viewBox="0 0 12076.7 14140.09">
 <defs>
  <style type="text/css">
   <![CDATA[
    .fil2 {fill:none}
    .fil4 {fill:#ED3237}
    .fil0 {fill:#0B1455}
    .fil3 {fill:#0D145A}
    .fil1 {fill:#CAC1D4}
    .fil5 {fill:#0D145A;fill-rule:nonzero}
   ]]>
  </style>
     <clipPath id="id0">
      <path d="M2685.96 8989.02l2320.68 0 343.04 724.2 2749.16 143.95 986.18 -868.14 1567.14 0 0 -7813.73 -7966.2 0 0 7813.73z"/>
     </clipPath>
 </defs>
 <g id="Camada_x0020_1">
  <metadata id="CorelCorpID_0Corel-Layer"/>
  <g id="_2000951770272">
   <g>
    <g>
    </g>
    <g style="clip-path:url(#id0)">
     <g>
      <g>
       <rect class="fil0" x="9511.26" y="-516.12" width="1619.92" height="1275.09"/>
       <rect class="fil1" x="11131.18" y="-516.12" width="1619.92" height="1275.09"/>
       <rect class="fil1" x="7891.35" y="-516.12" width="1619.92" height="1275.09"/>
       <rect class="fil0" x="6271.42" y="-516.12" width="1619.92" height="1275.09"/>
       <rect class="fil0" x="3031.59" y="-516.12" width="1619.92" height="1275.09"/>
       <rect class="fil1" x="4651.51" y="-516.12" width="1619.92" height="1275.09"/>
       <rect class="fil0" x="7891.34" y="758.97" width="1619.92" height="1275.09"/>
       <rect class="fil1" x="9511.26" y="758.97" width="1619.92" height="1275.09"/>
       <rect class="fil1" x="6271.43" y="758.97" width="1619.92" height="1275.09"/>
       <rect class="fil0" x="4651.5" y="758.97" width="1619.92" height="1275.09"/>
       <rect class="fil0" x="1411.67" y="758.97" width="1619.92" height="1275.09"/>
       <rect class="fil1" x="3031.59" y="758.97" width="1619.92" height="1275.09"/>
       <rect class="fil0" x="9511.26" y="2034.05" width="1619.92" height="1275.09"/>
       <rect class="fil1" x="11131.18" y="2034.05" width="1619.92" height="1275.09"/>
       <rect class="fil1" x="7891.35" y="2034.05" width="1619.92" height="1275.09"/>
       <rect class="fil0" x="6271.42" y="2034.05" width="1619.92" height="1275.09"/>
       <rect class="fil0" x="3031.59" y="2034.05" width="1619.92" height="1275.09"/>
       <rect class="fil1" x="4651.51" y="2034.05" width="1619.92" height="1275.09"/>
       <rect class="fil0" x="7891.34" y="3309.14" width="1619.92" height="1275.09"/>
       <rect class="fil1" x="9511.26" y="3309.14" width="1619.92" height="1275.09"/>
       <rect class="fil1" x="6271.43" y="3309.14" width="1619.92" height="1275.09"/>
       <rect class="fil0" x="4651.5" y="3309.14" width="1619.92" height="1275.09"/>
       <rect class="fil0" x="1411.67" y="3309.14" width="1619.92" height="1275.09"/>
       <rect class="fil1" x="3031.59" y="3309.14" width="1619.92" height="1275.09"/>
       <rect class="fil0" x="9511.26" y="4584.23" width="1619.92" height="1275.09"/>
       <rect class="fil1" x="11131.18" y="4584.23" width="1619.92" height="1275.09"/>
       <rect class="fil1" x="7891.35" y="4584.23" width="1619.92" height="1275.09"/>
       <rect class="fil0" x="6271.42" y="4584.23" width="1619.92" height="1275.09"/>
       <rect class="fil0" x="3031.59" y="4584.23" width="1619.92" height="1275.09"/>
       <rect class="fil1" x="4651.51" y="4584.23" width="1619.92" height="1275.09"/>
       <rect class="fil0" x="7891.34" y="5859.32" width="1619.92" height="1275.09"/>
       <rect class="fil1" x="9511.26" y="5859.32" width="1619.92" height="1275.09"/>
       <rect class="fil1" x="6271.43" y="5859.32" width="1619.92" height="1275.09"/>
       <rect class="fil0" x="4651.5" y="5859.32" width="1619.92" height="1275.09"/>
       <rect class="fil0" x="1411.67" y="5859.32" width="1619.92" height="1275.09"/>
       <rect class="fil1" x="3031.59" y="5859.32" width="1619.92" height="1275.09"/>
       <rect class="fil0" x="9511.26" y="7134.4" width="1619.92" height="1275.09"/>
       <rect class="fil1" x="11131.18" y="7134.4" width="1619.92" height="1275.09"/>
       <rect class="fil1" x="7891.35" y="7134.4" width="1619.92" height="1275.09"/>
       <rect class="fil0" x="6271.42" y="7134.4" width="1619.92" height="1275.09"/>
       <rect class="fil0" x="3031.59" y="7134.4" width="1619.92" height="1275.09"/>
       <rect class="fil1" x="4651.51" y="7134.4" width="1619.92" height="1275.09"/>
       <rect class="fil0" x="7891.34" y="8409.49" width="1619.92" height="1275.09"/>
       <rect class="fil1" x="9511.26" y="8409.49" width="1619.92" height="1275.09"/>
       <rect class="fil1" x="6271.43" y="8409.49" width="1619.92" height="1275.09"/>
       <rect class="fil0" x="4651.5" y="8409.49" width="1619.92" height="1275.09"/>
       <rect class="fil0" x="1411.67" y="8409.49" width="1619.92" height="1275.09"/>
       <rect class="fil1" x="3031.59" y="8409.49" width="1619.92" height="1275.09"/>
      </g>
     </g>
    </g>
    <polygon class="fil2" points="2685.96,8989.02 5006.64,8989.02 5349.68,9713.22 8098.84,9857.16 9085.02,8989.02 10652.17,8989.02 10652.17,1175.29 2685.96,1175.29 "/>
    <path class="fil3" d="M10655.56 4362.55l-1657.2 0 0 85.87 486.48 0 0 2765.45 0 1312.93 -0.38 0c0.24,12.1 0.38,24.21 0.38,36.35 0,18.18 -0.29,36.31 -0.83,54.4l-0.12 4.19c-0.57,17.85 -1.37,35.66 -2.45,53.4l-0.16 2.49c-1.09,17.42 -2.42,34.78 -3.99,52.09l-0.35 3.82c-1.62,17.52 -3.49,34.98 -5.61,52.37l-0.46 3.7c-2.12,17.09 -4.47,34.13 -7.05,51.1l-0.44 2.9c-2.65,17.2 -5.55,34.34 -8.68,51.41l-0.9 4.82c-3.14,16.91 -6.5,33.78 -10.11,50.57l-0.33 1.54c-3.66,16.97 -7.59,33.88 -11.73,50.71l-1.24 5.06c-4.15,16.67 -8.5,33.29 -13.1,49.84l-0.83 2.93c-4.5,16.05 -9.22,32.03 -14.13,47.95l-1.62 5.25c-5.01,16.06 -10.23,32.05 -15.67,47.97l-1.77 5.13c-5.29,15.3 -10.76,30.54 -16.42,45.72l-1.82 4.86c-5.87,15.58 -11.94,31.09 -18.22,46.51l-2.59 6.31c-6.12,14.91 -12.43,29.75 -18.93,44.51l-1.76 4.03c-6.75,15.24 -13.71,30.39 -20.86,45.47l-3.19 6.68c-7.05,14.74 -14.27,29.41 -21.69,43.98l-2.67 5.2c-7.18,14 -14.54,27.93 -22.06,41.78l-4.02 7.38c-7.82,14.27 -15.82,28.47 -24.01,42.59l-3.65 6.23c-7.76,13.27 -15.68,26.47 -23.75,39.59l-4.26 6.92c-8.54,13.78 -17.27,27.48 -26.16,41.08 -1.59,2.45 -3.2,4.87 -4.81,7.31 -8.4,12.75 -16.96,25.41 -25.65,38l-4.38 6.37c-9.26,13.3 -18.69,26.49 -28.27,39.61l-5.62 7.64c-9.22,12.52 -18.59,24.95 -28.11,37.3l-5.69 7.36c-9.44,12.14 -19.02,24.2 -28.74,36.17l-6.38 7.84c-10.24,12.5 -20.61,24.91 -31.15,37.22l-0.09 0.11c-479.71,560.38 -1269.01,926.13 -2161.45,926.13 -1278.39,0 -2345.13,-750.43 -2593.38,-1748.51l38.92 -914.78 -1258.77 12.96 -19.14 901.82c-5.78,61.39 -8.87,123.31 -8.87,185.75 0,1510.39 1719.29,2734.8 3840.16,2734.8 2748.14,0 3488.14,-1448.05 3819.73,-1924.5 0,-1878.84 0,-3760.55 0,-5641.57z"/>
    <path class="fil4" d="M8207.96 4448.42l1276.88 0 0 4078.38 -0.38 0c0.24,12.1 0.38,24.21 0.38,36.35 0,1211.39 -1185.52,2193.43 -2647.93,2193.43 -1462.42,0 -2647.94,-982.03 -2647.94,-2193.43 0,-1182.01 1128.73,-2145.46 2542.02,-2191.54l0 -1.9 105.92 0 1371.05 0 0 -1921.29zm-1181.59 2973.02c705.2,0 1276.88,475.68 1276.88,1062.48 0,586.79 -571.68,1062.48 -1276.88,1062.48 -705.2,0 -1276.88,-475.69 -1276.88,-1062.48 0,-586.8 571.68,-1062.48 1276.88,-1062.48z"/>
    <path class="fil4" d="M1421.13 9122.34l1734.27 0 0 -3316.08 1067.25 0c41.93,0 76.22,-34.3 76.22,-76.22l0 -1410.3c0,-41.93 -34.3,-76.22 -76.22,-76.22l-1067.25 0 0 -2191.66c1408.8,-1264.13 2418.67,331.42 2434.79,331.5l1299.6 6.27c255.32,-457 611.81,-812.82 1146.67,-990.28 612.86,-105.72 1231.28,63.29 1453.44,691.3l1162.28 9.13 -6.17 -974.19c-0.87,-138.08 -1940.46,-2195.55 -4229.26,-382.48 -62.94,49.87 -2999.09,-2105.44 -4995.61,946.66l0 7432.58z"/>
   </g>
   <path class="fil5" d="M-0 13192.75l164.25 0 0 -211.65 280.23 0 0 -136.3 -280.23 0 0 -100.75 309.85 0 0 -143.92 -474.1 0 0 592.62zm548.59 0l480.87 0 0 -139.69 -318.32 0 0 -93.97 284.47 0 0 -129.53 -284.47 0 0 -89.74 314.09 0 0 -139.69 -476.64 0 0 592.62zm564.68 0l225.2 0c213.34,0 337.79,-126.99 337.79,-298l0 -1.69c0,-171.01 -122.76,-292.92 -334.41,-292.92l-228.58 0 0 592.62zm164.25 -145.62l0 -301.38 66.87 0c98.21,0 163.4,55.03 163.4,149.85l0 1.69c0,95.67 -65.18,149.85 -163.4,149.85l-66.87 0zm483.4 145.62l480.87 0 0 -139.69 -318.32 0 0 -93.97 284.47 0 0 -129.53 -284.47 0 0 -89.74 314.09 0 0 -139.69 -476.64 0 0 592.62zm564.68 0l164.25 0 0 -179.47 70.26 0 1.69 0 119.37 179.47 189.64 0 -141.38 -206.57c73.65,-31.32 121.91,-91.43 121.91,-182.01l0 -1.69c0,-58.42 -17.78,-104.14 -52.5,-138 -39.79,-40.64 -102.43,-64.34 -193.02,-64.34l-280.23 0 0 592.62zm164.25 -308.16l0 -142.23 107.51 0c55.04,0 88.89,23.71 88.89,70.27l0 1.69c0,43.18 -32.17,70.26 -88.04,70.26l-108.36 0zm386.9 308.16l172.7 0 42.33 -105.82 228.59 0 43.18 105.82 176.08 0 -252.29 -596.85 -158.31 0 -252.29 596.85zm263.29 -233.66l66.88 -168.48 66.03 168.48 -132.92 0zm727.23 380.12l47.41 -136.3c111.76,-9.31 179.48,-61.8 230.28,-132.07l-123.6 -88.04c-35.56,43.18 -71.96,71.95 -133.77,71.95 -82.96,0 -141.38,-69.41 -141.38,-158.31l0 -1.7c0,-86.35 58.41,-156.62 141.38,-156.62 56.73,0 95.67,27.09 129.53,69.42l123.61 -95.67c-52.5,-72.8 -130.38,-123.6 -251.45,-123.6 -179.47,0 -312.39,135.45 -312.39,308.16l0 1.69c0,149 96.51,264.14 228.58,297.15l-66.03 89.74 127.84 54.18zm300.54 -146.46l172.7 0 42.33 -105.82 228.59 0 43.18 105.82 176.08 0 -252.29 -596.85 -158.31 0 -252.29 596.85zm263.29 -233.66l66.88 -168.48 66.03 168.48 -132.92 0zm-33.02 -392.83c11.01,-26.24 19.48,-38.94 43.18,-38.94 27.1,0 81.27,33.02 132.07,33.02 58.42,0 87.2,-42.34 104.98,-126.15l-77.03 -21.16c-11.01,26.24 -19.48,38.94 -43.19,38.94 -27.09,0 -81.27,-33.02 -132.07,-33.02 -58.41,0 -87.19,42.34 -104.97,126.15l77.03 21.16zm788.18 638.33c182.86,0 320.01,-137.99 320.01,-308.15l0 -1.7c0,-170.17 -135.45,-306.46 -318.32,-306.46 -182.86,0 -320.01,137.99 -320.01,308.16l0 1.69c0,170.17 135.46,306.46 318.32,306.46zm1.69 -148.15c-89.73,0 -151.54,-74.5 -151.54,-160.01l0 -1.7c0,-85.5 60.1,-158.32 149.85,-158.32 90.59,0 152.39,74.5 152.39,160.02l0 1.69c0,85.5 -60.1,158.32 -150.7,158.32zm638.33 136.3l160.86 0 0 -338.64 150.7 230.28 3.38 0 151.55 -231.97 0 340.33 163.4 0 0 -592.62 -173.55 0 -141.39 229.43 -141.38 -229.43 -173.55 0 0 592.62zm687.44 0l172.7 0 42.33 -105.82 228.59 0 43.18 105.82 176.08 0 -252.29 -596.85 -158.31 0 -252.29 596.85zm263.29 -233.66l66.88 -168.48 66.03 168.48 -132.92 0zm457.16 233.66l164.25 0 0 -179.47 70.26 0 1.69 0 119.37 179.47 189.64 0 -141.38 -206.57c73.65,-31.32 121.91,-91.43 121.91,-182.01l0 -1.69c0,-58.42 -17.78,-104.14 -52.5,-138 -39.79,-40.64 -102.43,-64.34 -193.02,-64.34l-280.23 0 0 592.62zm164.25 -308.16l0 -142.23 107.51 0c55.04,0 88.89,23.71 88.89,70.27l0 1.69c0,43.18 -32.17,70.26 -88.04,70.26l-108.36 0zm386.9 308.16l172.7 0 42.33 -105.82 228.59 0 43.18 105.82 176.08 0 -252.29 -596.85 -158.31 0 -252.29 596.85zm263.29 -233.66l66.88 -168.48 66.03 168.48 -132.92 0zm457.16 233.66l162.55 0 0 -325.09 253.14 325.09 143.92 0 0 -592.62 -162.55 0 0 313.24 -243.82 -313.24 -153.24 0 0 592.62zm664.58 0l164.25 0 0 -225.19 210.8 0 0 225.19 164.24 0 0 -592.62 -164.24 0 0 221.81 -210.8 0 0 -221.81 -164.25 0 0 592.62zm644.26 0l480.87 0 0 -139.69 -318.32 0 0 -93.97 284.47 0 0 -129.53 -284.47 0 0 -89.74 314.09 0 0 -139.69 -476.64 0 0 592.62zm564.68 0l162.55 0 0 -325.09 253.14 325.09 143.92 0 0 -592.62 -162.55 0 0 313.24 -243.82 -313.24 -153.24 0 0 592.62zm897.4 10.16c143.92,0 239.59,-71.96 239.59,-193.02l0 -1.69c0,-110.91 -84.66,-154.93 -220.97,-184.56 -82.11,-18.62 -102.43,-30.48 -102.43,-57.56l0 -1.7c0,-21.16 19.47,-38.1 59.25,-38.1 52.5,0 111.75,20.32 165.94,58.42l82.12 -115.99c-64.34,-51.65 -143.08,-78.73 -243.82,-78.73 -142.23,0 -229.43,79.58 -229.43,189.64l0 1.69c0,121.91 97.36,157.47 223.5,186.25 80.42,18.62 99.9,32.17 99.9,56.72l0 1.7c0,25.4 -23.71,40.64 -67.73,40.64 -68.57,0 -133.76,-24.56 -192.17,-71.11l-91.43 109.21c72.8,65.18 172.7,98.2 277.69,98.2zm319.16 -10.16l480.87 0 0 -139.69 -318.32 0 0 -93.97 284.47 0 0 -129.53 -284.47 0 0 -89.74 314.09 0 0 -139.69 -476.64 0 0 592.62zm-9964.44 935.49l225.2 0c213.34,0 337.79,-126.99 337.79,-298l0 -1.69c0,-171.01 -122.76,-292.92 -334.41,-292.92l-228.58 0 0 592.62zm164.25 -145.62l0 -301.38 66.87 0c98.21,0 163.4,55.03 163.4,149.85l0 1.69c0,95.67 -65.18,149.85 -163.4,149.85l-66.87 0zm483.4 145.62l480.87 0 0 -139.69 -318.32 0 0 -93.97 284.47 0 0 -129.53 -284.47 0 0 -89.74 314.09 0 0 -139.69 -476.64 0 0 592.62zm958.36 10.16c67.72,0 123.6,-21.17 162.55,-60.1 39.79,-39.8 58.41,-92.28 58.41,-166.79l0 -375.89 -163.4 0 0 375.05c0,55.03 -26.25,82.96 -67.72,82.96 -36.41,0 -63.49,-20.32 -92.28,-55.03l-105.82 99.89c41.48,56.73 104.97,99.9 208.26,99.9zm616.32 1.69c182.86,0 320.01,-137.99 320.01,-308.15l0 -1.7c0,-170.17 -135.45,-306.46 -318.32,-306.46 -182.86,0 -320.01,137.99 -320.01,308.16l0 1.69c0,170.17 135.46,306.46 318.32,306.46zm1.69 -148.15c-89.73,0 -151.54,-74.5 -151.54,-160.01l0 -1.7c0,-85.5 60.1,-158.32 149.85,-158.32 90.59,0 152.39,74.5 152.39,160.02l0 1.69c0,85.5 -60.1,158.32 -150.7,158.32zm706.06 148.15c107.52,0 194.72,-39.79 257.37,-91.43l0 -266.68 -272.61 0 0 120.22 116.84 0 0 71.96c-24.56,16.08 -55.04,24.55 -94.82,24.55 -93.97,0 -160.86,-68.57 -160.86,-164.24l0 -1.7c0,-90.58 66.03,-162.55 151.54,-162.55 58.41,0 100.75,20.32 143.08,55.88l96.51 -115.98c-62.64,-54.19 -136.3,-86.35 -240.43,-86.35 -183.71,0 -319.17,135.45 -319.17,308.16l0 1.69c0,179.47 138,306.46 322.55,306.46zm646.8 0c182.86,0 320.01,-137.99 320.01,-308.15l0 -1.7c0,-170.17 -135.45,-306.46 -318.32,-306.46 -182.86,0 -320.01,137.99 -320.01,308.16l0 1.69c0,170.17 135.46,306.46 318.32,306.46zm1.69 -148.15c-89.73,0 -151.54,-74.5 -151.54,-160.01l0 -1.7c0,-85.5 60.1,-158.32 149.85,-158.32 90.59,0 152.39,74.5 152.39,160.02l0 1.69c0,85.5 -60.1,158.32 -150.7,158.32zm632.41 146.46c143.92,0 239.59,-71.96 239.59,-193.02l0 -1.69c0,-110.91 -84.66,-154.93 -220.97,-184.56 -82.11,-18.62 -102.43,-30.48 -102.43,-57.56l0 -1.7c0,-21.16 19.47,-38.1 59.25,-38.1 52.5,0 111.75,20.32 165.94,58.42l82.12 -115.99c-64.34,-51.65 -143.08,-78.73 -243.82,-78.73 -142.23,0 -229.43,79.58 -229.43,189.64l0 1.69c0,121.91 97.36,157.47 223.5,186.25 80.42,18.62 99.9,32.17 99.9,56.72l0 1.7c0,25.4 -23.71,40.64 -67.73,40.64 -68.57,0 -133.76,-24.56 -192.17,-71.11l-91.43 109.21c72.8,65.18 172.7,98.2 277.69,98.2zm553.67 -10.16l225.2 0c213.34,0 337.79,-126.99 337.79,-298l0 -1.69c0,-171.01 -122.76,-292.92 -334.41,-292.92l-228.58 0 0 592.62zm164.25 -145.62l0 -301.38 66.87 0c98.21,0 163.4,55.03 163.4,149.85l0 1.69c0,95.67 -65.18,149.85 -163.4,149.85l-66.87 0zm483.4 145.62l480.87 0 0 -139.69 -318.32 0 0 -93.97 284.47 0 0 -129.53 -284.47 0 0 -89.74 314.09 0 0 -139.69 -476.64 0 0 592.62zm799.19 0l225.2 0c213.34,0 337.79,-126.99 337.79,-298l0 -1.69c0,-171.01 -122.76,-292.92 -334.41,-292.92l-228.58 0 0 592.62zm164.25 -145.62l0 -301.38 66.87 0c98.21,0 163.4,55.03 163.4,149.85l0 1.69c0,95.67 -65.18,149.85 -163.4,149.85l-66.87 0zm393.67 145.62l172.7 0 42.33 -105.82 228.59 0 43.18 105.82 176.08 0 -252.29 -596.85 -158.31 0 -252.29 596.85zm263.29 -233.66l66.88 -168.48 66.03 168.48 -132.92 0zm457.16 233.66l160.86 0 0 -338.64 150.7 230.28 3.38 0 151.55 -231.97 0 340.33 163.4 0 0 -592.62 -173.55 0 -141.39 229.43 -141.38 -229.43 -173.55 0 0 592.62zm687.44 0l172.7 0 42.33 -105.82 228.59 0 43.18 105.82 176.08 0 -252.29 -596.85 -158.31 0 -252.29 596.85zm263.29 -233.66l66.88 -168.48 66.03 168.48 -132.92 0z"/>
  </g>
 </g>
</svg>